<?xml version="1.0" encoding="UTF-8"?>
<!DOCTYPE svg PUBLIC "-//W3C//DTD SVG 1.1//EN" "http://www.w3.org/Graphics/SVG/1.1/DTD/svg11.dtd">
<!-- Creator: CorelDRAW -->
<svg xmlns="http://www.w3.org/2000/svg" xml:space="preserve" width="6.53048in" height="7.11272in" version="1.1" style="shape-rendering:geometricPrecision; text-rendering:geometricPrecision; image-rendering:optimizeQuality; fill-rule:evenodd; clip-rule:evenodd"
viewBox="0 0 2989.91 3256.48"
 xmlns:xlink="http://www.w3.org/1999/xlink"
 xmlns:xodm="http://www.corel.com/coreldraw/odm/2003">
 <defs>
  <style type="text/css">
   <![CDATA[
    .fil0 {fill:#1AA5FF}
   ]]>
  </style>
 </defs>
 <g id="Layer_x0020_1">
  <metadata id="CorelCorpID_0Corel-Layer"/>
  <path class="fil0" d="M1392.91 2963.91c0,-53.95 43.8,-101.76 95.4,-101.76 90.81,0 138.88,104.14 78.33,167.38 -73.75,77.03 -173.74,10.37 -173.74,-65.61zm680.55 -305.29c0,-144.59 197.17,-144.79 197.17,-6.36 0,133.72 -197.17,117.8 -197.17,6.36zm-1361.11 -6.36c0,-92.13 108.37,-136.59 173.74,-71.97 92.82,91.76 -52.8,229.39 -140.78,140.77 -11.54,-11.62 -32.96,-49.4 -32.96,-68.8zm-57.24 -1838.13c-101.52,0 -186.92,21.91 -259.96,51.69 -62.07,25.31 -144.13,77.36 -193.34,124.68 -13.14,12.63 -26.59,25.44 -37.39,38.93 -13.31,16.63 -26.24,30.01 -37.31,45.38 -63.56,88.25 -127.11,228.87 -127.11,349.91 0,136.83 5.03,198.08 63.6,324.38 24.53,52.9 63.37,98.37 95.39,139.94 103.13,133.86 313.99,222.6 489.76,222.6l69.96 0 0 260.77c-80.18,6.67 -197.17,138.48 -197.17,248.05 0,73.67 -3.63,96.19 31.61,165.56 102.46,201.72 409.12,216.53 521.86,-0.07 55.95,-107.49 39.69,-226.29 -32.76,-323.67 -23.13,-31.09 -86.23,-86.01 -132.74,-89.88l0 -260.77 483.38 0 0 559.71c0,28.8 -74.92,29.62 -140.11,120.66 -35.38,49.4 -63.37,126.45 -51.92,204.86 21.15,144.82 139.71,259.63 268.36,259.63 92.67,0 158.59,-14.66 230.66,-81 140.82,-129.63 107.92,-391.2 -73.89,-476.47 -20.31,-9.52 -35.92,-6.11 -35.92,-27.68l0 -559.71 483.38 0 0 260.77c-157.56,36.71 -291.45,303.62 -109.91,485.16 182.1,182.1 504.24,59 504.24,-211.67 0,-124.13 -93.05,-249.24 -197.17,-273.49l0 -260.77c241.16,-5.37 449.23,-141.57 587.01,-328.87 25.32,-34.42 46.92,-77.46 66.02,-118.44 218.99,-469.82 -130.05,-1053.73 -678.47,-1053.73 -10.47,-125.79 -153.87,-331.32 -256.26,-417.93 -126.79,-107.25 -315.77,-192.66 -487.9,-192.66 -159.45,0 -251.74,11.02 -390.11,80.56 -102.58,51.56 -144.46,82.07 -228.44,165.9 -124.24,124.03 -227.38,320.73 -227.38,567.66z"/>
 </g>
</svg>
