<?xml version="1.0" encoding="UTF-8"?>
<!DOCTYPE svg PUBLIC "-//W3C//DTD SVG 1.1//EN" "http://www.w3.org/Graphics/SVG/1.1/DTD/svg11.dtd">
<!-- Creator: CorelDRAW -->
<svg xmlns="http://www.w3.org/2000/svg" xml:space="preserve" width="5.33407in" height="5.33407in" version="1.1" style="shape-rendering:geometricPrecision; text-rendering:geometricPrecision; image-rendering:optimizeQuality; fill-rule:evenodd; clip-rule:evenodd"
viewBox="0 0 3481.63 3481.63"
 xmlns:xlink="http://www.w3.org/1999/xlink"
 xmlns:xodm="http://www.corel.com/coreldraw/odm/2003">
 <defs>
  <style type="text/css">
   <![CDATA[
    .fil0 {fill:#1AA5FF}
   ]]>
  </style>
 </defs>
 <g id="Layer_x0020_1">
  <metadata id="CorelCorpID_0Corel-Layer"/>
  <path class="fil0" d="M544 2441.22l564.4 0c9.02,108.42 137.85,506.63 197.2,618.8 -64.81,-15.1 -228.94,-93.97 -288.43,-133.17 -189.63,-124.95 -366.59,-282.8 -473.17,-485.63zm1141.91 -2441.22l120.08 0c123.31,4.17 246.3,21.16 366.04,51.58 155.03,39.38 314.58,105.59 447.33,185.07 169.46,101.46 168.48,113.75 299.86,223.75 48.37,40.5 114.86,111.55 153.44,159.36 16.43,20.36 32.82,38.47 49.49,59.31 202.36,253.05 359.46,651.67 359.46,1000.54l0 119.08c-1.59,78.82 -8.93,161.71 -37.73,203.6 -31.75,46.19 -89.22,89.74 -162.66,81.82 -206.67,-22.28 -153.22,-238.85 -153.22,-343.29 0,-241.18 -33.13,-254.61 -40.8,-346.8l-666.4 0c6.36,76.4 25.25,277.27 20.14,346.54 -12.02,163.14 -190.82,238.84 -307.68,117.8 -30.95,-32.06 -45.98,-69.74 -45.91,-130.89 0.16,-131.28 -9.27,-202.54 -20.16,-333.44l-659.61 0c0,95.39 -13.6,177.09 -13.6,278.8l0 142.8c0,99.2 13.6,180.29 13.6,272l333.2 0c100.85,0 176.8,87 176.8,170 0,234.21 -284.57,183.6 -448.8,183.6 10.4,124.96 157.83,498.79 223.08,606.52 36.53,60.31 33.54,86.5 96.08,87.52 95.27,1.55 160.33,-17.42 228.9,29.5 62.19,42.55 70.74,92.59 70.74,160.46 0,77.23 -80.21,156.4 -156.4,156.4 -356.96,0 -605.2,-2.27 -931.71,-163.1 -188.82,-93.01 -240.06,-136.63 -383.6,-248.8 -62.34,-48.71 -109.91,-104.06 -158.47,-154.34l-73.83 -82.57c-9.28,-11.82 -15.34,-21.09 -23.13,-31.27 -9.33,-12.19 -14.47,-16.65 -24.44,-29.96 -52.68,-70.28 -140.79,-214.75 -174.8,-294.41 -130.4,-305.44 -161.24,-458.89 -161.24,-797.57 0,-239.56 83.77,-519.04 163.1,-680.11 95.83,-194.54 135.1,-238.09 248.8,-383.6 70.74,-90.53 177.16,-184.46 267.17,-256.44 278.27,-222.54 639.76,-347.21 1006.84,-359.46zm-645.5 1706.81c0,140.07 13.6,266.32 13.6,380.8l-659.6 0c-5.19,-62.35 -40.8,-135.6 -40.8,-285.6 0,-113.64 -4.84,-165.2 14.47,-277.93l26.33 -130.07 659.6 0c0,106.5 -13.6,199.98 -13.6,312.8zm693.61 -1346.41c62.89,46.08 189.74,381.04 223.56,490.44 13.18,42.66 47.42,143.97 48.44,189.56l-537.2 0c29.77,-127.77 67.06,-243.49 109.82,-359.39 20.65,-55.98 47.67,-111.99 73.79,-164.22l81.6 -156.4zm442 61.2c92.75,21.61 262.55,112.65 342.86,167.14 129.64,87.96 260.43,215.16 350.73,342.88 24.98,35.33 47.12,69.29 68.02,108.78l-564.4 0c-9.6,-19.99 -14.59,-56.98 -20.4,-81.6 -6.52,-27.61 -12.09,-57.42 -19.57,-82.43 -16.42,-54.85 -27.6,-103.51 -45.79,-158.21l-111.44 -296.56zm-1067.61 618.8l-564.4 0c8.15,-30.54 75.39,-118.4 100.03,-151.57 37.53,-50.5 79.1,-92.16 122.67,-135.73 16.35,-16.35 27.73,-28.17 44.07,-44.34 71.07,-70.32 168.57,-130.65 253.94,-181.26 49.65,-29.44 186.48,-93.23 240.9,-105.9l-60.23 143.77c-61.75,153.66 -98.7,310.76 -136.97,475.03zm1088.01 1237.61c0,48.73 144.41,344.54 181.36,423.84 22.88,49.1 40.59,94.39 63.51,140.49 21.6,43.44 39.45,92.71 61.05,136.15l123.43 270.97c51.14,126.42 135.79,135.54 189.26,41.57 18.6,-32.69 34.36,-68.17 52.32,-104.08 129.09,-258.18 53.37,-186.49 310.54,-315.07 54.3,-27.15 174.53,-68.62 174.53,-138.27 0,-60.48 -48.43,-84.93 -93.23,-103.97l-412.31 -186.09c-46.78,-22.64 -87.26,-40.91 -135.62,-61.58 -48.2,-20.6 -91.5,-44.52 -139.88,-64.12 -67.73,-27.44 -239.78,-121.45 -293.35,-121.45 -40.85,0 -81.6,40.75 -81.6,81.6z"/>
 </g>
</svg>
