<?xml version="1.0" encoding="UTF-8"?>
<!DOCTYPE svg PUBLIC "-//W3C//DTD SVG 1.1//EN" "http://www.w3.org/Graphics/SVG/1.1/DTD/svg11.dtd">
<!-- Creator: CorelDRAW -->
<svg xmlns="http://www.w3.org/2000/svg" xml:space="preserve" width="7.293in" height="9.724in" version="1.1" style="shape-rendering:geometricPrecision; text-rendering:geometricPrecision; image-rendering:optimizeQuality; fill-rule:evenodd; clip-rule:evenodd"
viewBox="0 0 1108.81 1478.42"
 xmlns:xlink="http://www.w3.org/1999/xlink"
 xmlns:xodm="http://www.corel.com/coreldraw/odm/2003">
 <defs>
  <style type="text/css">
   <![CDATA[
    .fil0 {fill:#1AA5FF}
   ]]>
  </style>
 </defs>
 <g id="Layer_x0020_1">
  <metadata id="CorelCorpID_0Corel-Layer"/>
  <path class="fil0" d="M430.23 462.01l0 848.94c0,31.13 28.5,48.15 59.79,22.23l148.12 -114.64c6.33,11.97 11.48,21.54 18.23,33.74 6.8,12.22 12.11,21.37 18.32,33.64 22.12,43.58 59.51,104.7 83.75,150.15 3.73,6.96 5.22,10.52 9.06,16.95 9.5,15.97 17.69,23.58 27.33,25.4l9.99 0c13.18,-2.12 29.78,-11.6 54.69,-24.07l111.66 -55.81c26.8,-13.41 45.24,-16.46 45.24,-47.17 0,-10.43 -37.51,-73.32 -47.17,-91.45 -3.94,-7.36 -4.7,-7.43 -8.61,-14.46l-74.15 -136.64 187.86 0.16c27.4,-0.54 34.48,-13.22 34.48,-34.81 0,-16.3 -23.98,-34.09 -33.95,-44.05l-565.94 -565.94c-11.01,-11.01 -27.87,-33.95 -46.94,-33.95 -16.86,0 -31.76,14.9 -31.76,31.78zm-430.23 -2.89c0,21.37 10.38,34.64 34.64,34.64l181.9 0c39.86,0 39.86,-63.54 0,-63.54l-181.9 0c-18.65,0 -34.64,10.83 -34.64,28.89zm707.43 34.64l181.93 0c46.73,0 46.73,-63.54 0,-63.54l-181.93 0c-40.84,0 -39.18,63.54 0,63.54zm-277.2 -459.12l0 181.93c0,39.84 63.54,39.84 63.54,0l0 -181.93c0,-20.88 -12.69,-32.43 -26.73,-34.64l-10.08 0c-14.04,2.21 -26.73,13.76 -26.73,34.64zm-147.26 571.74c-17.44,5.1 -7.47,-2.82 -29.62,19.49l-122.37 123.14c-15.69,24.82 5.33,53.36 31.62,48.71 18.88,-3.33 84.86,-76.44 102.32,-93.87 30.83,-30.85 68.82,-54.13 48.78,-84.86 -4.26,-6.54 -12.57,-12.55 -20.95,-13.95l-4.14 -0.26c-4.56,0.23 -3.98,1.12 -5.63,1.61zm482.22 -479.33c-10.5,2.31 -9.61,-1 -18,5.1l-37.6 37.48c-17.07,17.07 -32.01,32.04 -49.08,49.1 -13.11,13.08 -39.23,36.13 -48.94,49.24 -17.72,23.84 2.37,54.5 27.96,51.01 20.09,-2.75 41.42,-31.2 54.18,-43.96l98.09 -98.3c11.34,-15.6 7.31,-37.55 -9.36,-46.94 -7.52,-4.26 -9.59,-4.42 -17.25,-2.75zm-609.27 0c-10.08,1.58 -21.86,0.47 -28.85,20.46 -9.43,26.96 29.96,54.29 58.44,82.77 17.07,17.07 32.01,32.01 49.08,49.08 13.22,13.22 33.46,42.23 56.27,39.79 27.68,-2.96 37.51,-34.71 17.48,-55.76l-135.25 -133.52c-3.68,-1.96 -3,-1.96 -8.5,-3.07l-8.68 0.26z"/>
 </g>
</svg>
