<?xml version="1.0" encoding="UTF-8"?>
<!DOCTYPE svg PUBLIC "-//W3C//DTD SVG 1.1//EN" "http://www.w3.org/Graphics/SVG/1.1/DTD/svg11.dtd">
<!-- Creator: CorelDRAW -->
<svg xmlns="http://www.w3.org/2000/svg" xml:space="preserve" width="9.68365in" height="9.724in" version="1.1" style="shape-rendering:geometricPrecision; text-rendering:geometricPrecision; image-rendering:optimizeQuality; fill-rule:evenodd; clip-rule:evenodd"
viewBox="0 0 10614.61 10658.85"
 xmlns:xlink="http://www.w3.org/1999/xlink"
 xmlns:xodm="http://www.corel.com/coreldraw/odm/2003">
 <defs>
  <style type="text/css">
   <![CDATA[
    .fil0 {fill:#1AA5FF}
   ]]>
  </style>
 </defs>
 <g id="Layer_x0020_1">
  <metadata id="CorelCorpID_0Corel-Layer"/>
  <path class="fil0" d="M3449.75 6744.7c-234.47,0 -390.38,-341.72 -113.54,-489.47 66.37,-35.42 68.79,-21.79 107.71,-91.32l197.47 -377.48c42.61,-85.88 75.63,-213.76 184.29,-213.76 348.13,0 -2.16,507.13 -97.32,699.36 -81.52,164.69 29.85,170.57 -36.94,315.25 -35.62,77.14 -125.43,157.41 -241.67,157.41zm1592.19 -1039.34c129.31,-34.53 484.67,-300.37 619.19,-331.71 239.12,451.92 237.08,914.07 265.36,973.01l-729.76 0c0,-340.8 -136.36,-497.6 -154.79,-641.3zm-3339.18 641.3l-707.65 0c0,-230.06 25.96,-363.18 85.56,-555.73l157.69 -417.27c73.96,17.23 92.42,34.63 150.69,70.45l468.5 261.26c-9.58,115.15 -154.79,343.02 -154.79,641.3zm1326.82 0l-1061.46 0c0,-678.14 682.83,-1364.61 1481.62,-1364.61 718.05,0 1358.58,550.01 1472.42,1196.91 15.54,88.3 -1.63,99.02 31.32,167.7l-1039.35 0c39.11,-167.83 265.37,-462.09 265.37,-619.19 0,-306.47 -435.46,-531.57 -662.81,-132.08 -75.62,132.87 -129.18,274.72 -205.85,413.33 -82.61,149.34 -226.27,101.94 -281.25,337.94zm1746.99 -1923.89c232.8,54.23 622.16,536.04 751.87,729.75 -122.64,28.57 -498.84,303.67 -619.18,331.71 -112.09,-82.12 -104.12,-201.02 -464.4,-442.28 27.6,-118.45 302.6,-494.25 331.71,-619.18zm-2786.34 1061.46c-73.17,-19.53 -221.66,-118.61 -302.01,-162.38 -99.65,-54.29 -211.38,-144.67 -317.17,-169.32 110.38,-164.84 184.62,-262.03 326.17,-403.59 86.68,-86.68 306.94,-298.5 425.7,-326.17 31.31,117.26 304.41,502.05 331.7,619.18 -307.7,206.05 -366.68,376.85 -464.39,442.28zm2233.49 -574.96c-141.44,-74.84 -428.07,-176.91 -641.3,-176.91l0 -707.64c268.5,0 521.35,62.86 752.15,154.52 68.48,27.19 153.09,72.95 220.86,88.74 -12.47,149.8 -288.85,480.78 -331.71,641.3zm-1879.67 -641.3c68.11,-15.87 131.36,-52.73 205.15,-82.34 210.71,-84.56 518.37,-160.92 767.87,-160.92l0 707.64c-213.23,0 -499.86,102.07 -641.31,176.91 -17.56,-75.38 -124.84,-241.52 -169.93,-316.57 -50.93,-84.75 -149.03,-225.36 -161.78,-324.72zm-2344.06 4975.6l6899.5 0 0 -7828.29 -6899.5 0 0 7828.29zm7186.98 -5882.27c0,91.64 130.47,74.04 312.65,129.62 123.82,37.77 202.79,84.14 306.69,135.58 848.9,420.34 1256.83,1498.82 859.46,2474.1 -149.86,367.8 -484.58,745.29 -844.61,924.5 -210.81,104.92 -251.64,132.36 -479.87,183.54 -74.68,16.75 -154.33,10.06 -154.33,88.93l0 1746.99c492.59,0 205.86,-333.02 454.63,-695.28 247.58,-360.49 690.32,-475.96 1108.75,-248.93 127.7,69.29 168.59,192.34 338.4,192.34 154.78,0 342.28,-242.77 436.75,-337.24 170.38,-170.38 468.54,-363.41 265.32,-608.08 -50.55,-60.85 -64.1,-52.38 -112.67,-130.58 -244.94,-394.45 -133.88,-921.53 273.56,-1157.08 144.98,-83.81 212.42,-92.48 418.85,-111.89 160.36,-15.07 244.05,-122.31 244.05,-286.67l0 -663.41c0,-389.81 -337.89,-217.67 -648.77,-390.58 -418.93,-233.01 -537.81,-762.16 -287.68,-1165.07 49.41,-79.58 184.59,-173.82 184.59,-301.91 0,-152.77 -243.68,-343.19 -337.24,-436.75 -123.19,-123.19 -272.86,-337.24 -458.85,-337.24 -182.99,0 -285.88,309.59 -729.76,309.59 -481.07,0 -796.24,-340.15 -818.37,-773.81 -13.73,-268.88 -163.83,-287.64 -331.54,-287.64l0 1746.99zm-4489.1 6788.94c0,-107.76 28.76,-176.91 154.8,-176.91l1194.14 0c230.84,0 175.67,287.48 44.23,287.48l-1282.59 0c-51.57,0 -110.57,-59.01 -110.57,-110.57zm-2697.88 -309.59c0,240.96 85.87,418.85 194.95,556.91 82.52,104.44 333.21,261.3 512.69,261.3l5484.22 0c346.01,0 707.64,-353.51 707.64,-796.1l0 -331.71 -6899.5 0 0 309.6zm1923.9 -9243.57c0,-162.48 50.36,-309.59 265.36,-309.59 318.24,0 377.41,516.97 16.49,542.63 -127.94,9.09 -281.86,-92.38 -281.86,-233.04zm3095.93 110.57l-1901.78 0c-230.84,0 -175.67,-287.48 -44.23,-287.48l1923.91 0c212.62,0 169.45,287.48 22.11,287.48zm-5019.82 110.56l0 309.6 6899.5 0c0,-385.18 37.31,-588.78 -205.25,-878.34 -86.16,-102.86 -325.12,-249.47 -502.39,-249.47l-5484.22 0c-347.27,0 -707.63,354.28 -707.63,818.21z"/>
 </g>
</svg>
