<?xml version="1.0" encoding="UTF-8"?>
<!DOCTYPE svg PUBLIC "-//W3C//DTD SVG 1.1//EN" "http://www.w3.org/Graphics/SVG/1.1/DTD/svg11.dtd">
<!-- Creator: CorelDRAW -->
<svg xmlns="http://www.w3.org/2000/svg" xml:space="preserve" width="4.66973in" height="4.66973in" version="1.1" style="shape-rendering:geometricPrecision; text-rendering:geometricPrecision; image-rendering:optimizeQuality; fill-rule:evenodd; clip-rule:evenodd"
viewBox="0 0 3396.21 3396.21"
 xmlns:xlink="http://www.w3.org/1999/xlink"
 xmlns:xodm="http://www.corel.com/coreldraw/odm/2003">
 <defs>
  <style type="text/css">
   <![CDATA[
    .fil0 {fill:#1AA5FF}
   ]]>
  </style>
 </defs>
 <g id="Layer_x0020_1">
  <metadata id="CorelCorpID_0Corel-Layer"/>
  <path class="fil0" d="M364.56 2319.4l0 -1242.61c0,-30.87 74.57,-52.27 105.24,-137.22 26.73,-74.03 -20.83,-41.88 140.42,-109.62 211.81,-88.97 502.6,-202.31 706.45,-293.7l219.56 -91.99c23.59,-5.09 26.06,1.82 40.98,10.33 71.89,41 164.66,43.57 236.98,2.96 41.9,-23.53 34.46,-19.93 83.52,2.86 144.08,66.93 376.04,153.82 529.9,220.26l438.62 182.69c92.39,35.14 10.48,31.58 103.48,146.56 18.87,23.33 61.93,41.68 61.93,66.88l0 1242.61c0,33.77 -73.03,43.02 -105.2,137.26 -25.4,74.43 15.93,43.88 -140.46,109.58 -211.81,88.97 -502.6,202.31 -706.45,293.7l-219.56 91.99c-23.59,5.09 -26.06,-1.82 -40.98,-10.33 -71.89,-41 -164.66,-43.57 -236.98,-2.96 -41.9,23.53 -34.46,19.93 -83.52,-2.86 -59.94,-27.85 -116.06,-46.27 -176.66,-73.44l-706.23 -293.92c-26.94,-11.03 -57.63,-24.95 -85.63,-35.6 -92.39,-35.14 -10.48,-31.58 -103.48,-146.56 -18.87,-23.33 -61.93,-41.68 -61.93,-66.88zm-98.5 -1712.38l-37.88 0c-116.93,0 -227.31,110.38 -227.31,227.31 0,195.17 121.23,199.78 121.23,242.46l0 1242.61c0,23.1 -19.12,27.04 -35.55,40.22 -176.24,141.3 -58.96,429.55 134.05,429.55 208.32,0 98.7,-79.33 232.76,-20.62 64.32,28.17 122.27,50.77 187.17,78.03l787.47 326.33c59.36,25.57 16.87,50.24 76.06,128.51 114.39,151.29 371.54,119.72 426.97,-82.33 11.94,-43.52 6.77,-33.84 75.56,-60.83 285.37,-111.96 640.22,-264.45 930.92,-387.47 56.77,-24.02 53.98,-35.43 89.74,-15.86 101.43,55.52 216.39,46.35 298.3,-35.56 82.95,-82.95 93.79,-216.01 27.65,-312.41 -43.46,-63.34 -79.11,-55.98 -79.11,-87.58l0 -1242.61c0,-45.15 121.23,-41.36 121.23,-250.04 0,-56.62 -39.75,-119.93 -69.78,-149.95 -147.54,-147.53 -296.49,-20.03 -334.56,-28.24 -18.04,-3.89 -31.38,-13.57 -48.16,-20.92l-930.79 -387.6c-138.57,-54.88 -36.56,-35.04 -119.91,-145.28 -94.15,-124.52 -287.11,-126.7 -384.78,-4.29 -20.76,26.01 -33.12,53.53 -42.19,86.61 -11.94,43.52 -6.77,33.84 -75.56,60.83 -285.37,111.96 -640.22,264.45 -930.92,387.47 -56.77,24.02 -53.98,35.43 -89.74,15.86 -27.99,-15.32 -63.87,-34.21 -102.88,-34.21zm1371.42 2060.92l0 -1053.19 -791.2 -352.91c-38.9,-16.16 -79.97,-39.8 -118.03,-48.66l-0 886.5c-0.02,174.33 0.55,165.62 189.53,249.94 35.72,15.94 70.17,29.66 105.85,45.69l613.86 272.64zm121.23 -1053.19l0 1053.19 613.86 -272.64c352.31,-158.27 295.37,-55.04 295.37,-591.13 0,-197 0,-394 0,-591l-794.51 349.6c-33.25,13.53 -82.43,34.89 -114.72,51.97zm-962.27 -515.23l0 15.16c32.53,7.58 78.85,33.59 111.48,47.64l446.67 197.37c39.61,18.51 75.42,35.39 115.14,51.56 31.38,12.77 207.84,97.44 228.37,97.44l674.34 -295.5c35.2,-17.08 71.27,-32.39 110.45,-48.66 35.42,-14.72 82.37,-41.8 116.86,-49.83l0 -15.16c-43.81,-10.2 -395.51,-166.13 -442.05,-186.83 -52.38,-23.3 -421.15,-184.43 -444.45,-184.43 -74.67,0 -161.83,50.12 -252.14,88.82 -71.63,30.69 -617.33,271.42 -664.67,282.45z"/>
 </g>
</svg>
