<?xml version="1.0" encoding="UTF-8"?>
<!DOCTYPE svg PUBLIC "-//W3C//DTD SVG 1.1//EN" "http://www.w3.org/Graphics/SVG/1.1/DTD/svg11.dtd">
<!-- Creator: CorelDRAW -->
<svg xmlns="http://www.w3.org/2000/svg" xml:space="preserve" width="9.724in" height="9.724in" version="1.1" style="shape-rendering:geometricPrecision; text-rendering:geometricPrecision; image-rendering:optimizeQuality; fill-rule:evenodd; clip-rule:evenodd"
viewBox="0 0 1539.95 1539.95"
 xmlns:xlink="http://www.w3.org/1999/xlink"
 xmlns:xodm="http://www.corel.com/coreldraw/odm/2003">
 <defs>
  <style type="text/css">
   <![CDATA[
    .fil0 {fill:#1AA5FF}
   ]]>
  </style>
 </defs>
 <g id="Layer_x0020_1">
  <metadata id="CorelCorpID_0Corel-Layer"/>
  <path class="fil0" d="M351.44 1255.6c0,42.27 37.26,73.48 86.26,73.48l236.42 0 0 111.82 -115.02 0c-65.39,0 -57.51,65.26 -57.51,99.04l638.98 0c0,-36.96 11.1,-99.04 -57.51,-99.04l-111.82 0 0 -111.82 239.62 0c40.92,0 79.87,-28.43 79.87,-67.09l0 -277.96 -60.7 0 0 220.45 -207.67 0c-12.7,0 -31.86,40.83 -68.46,33.57 -11.07,-2.2 -19.46,-8.57 -24.8,-9.05 -4,-0.36 -18.03,4.07 -22.88,9.48 -8.48,9.46 -8.34,45.88 -59.57,45.88 -44.28,0 -77.39,7.21 -97.78,-23.62 -7.68,-11.62 -3.56,-20.44 -22.41,-29.07 -9.12,-4.17 -6.3,-3.46 -12.09,-2.36 -13.47,2.55 -27.42,16.57 -53.95,4.91 -14.97,-6.58 -32.31,-29.73 -40.6,-29.73l-204.47 0 0 -220.45 -63.9 0 0 271.57zm-159.75 -929.72c-23.33,0 -35.14,-18.2 -35.14,-41.53l0 -108.63c0,-32.85 11.72,-44.73 38.34,-44.73 11.34,0 97.14,52.33 113.64,62.08 17.52,10.35 26.93,13.41 26.93,36.97 0,25.02 -33.47,35.67 -64.08,54.13 -11.68,7.04 -68.32,41.72 -79.69,41.72zm-191.69 -111.82c0,47.21 1.59,70.55 22.36,115.02 4.87,10.42 13.54,23.65 20.94,33.37 140.08,183.91 413.57,75.66 413.57,-132.42 0,-74.03 -24.89,-110.07 -62.02,-158.43 -27.58,-35.91 -100.72,-71.61 -152.04,-71.61 -74.84,0 -126.69,16.4 -176.55,66.27 -30.26,30.26 -66.27,89.08 -66.27,147.79zm1265.18 143.77c0,-16.12 8.63,-25.56 19.17,-25.56l159.75 0c22.11,0 30.88,47.92 -3.19,47.92l-153.36 0c-14.92,0 -22.37,-7.45 -22.37,-22.36zm0 -79.87c0,-10.47 -1.12,-25.56 22.37,-25.56l153.36 0c32.1,0 30.02,47.92 -3.2,47.92l-153.36 0c-7.03,0 -19.17,-7.12 -19.17,-22.36zm0 -76.68c0,-10.64 -1.47,-31.95 25.56,-31.95l146.97 0c32.14,0 40.21,51.12 -6.39,51.12l-134.19 0c-14.38,0 -31.95,-6.04 -31.95,-19.17zm-76.68 -191.7l0 437.7c0,7.36 2.22,9.59 9.58,9.59 55.19,0 308.12,4.66 341.85,-3.2l0 -313.1c-48.16,0 -112.83,8.19 -138.34,-15.02 -27.01,-24.58 -18.22,-74.66 -18.22,-125.56l-185.3 0c-7.36,0 -9.58,2.22 -9.58,9.58zm-373.8 89.46c36.02,0 42.23,63.9 -3.19,63.9 -39.52,0 -41.88,-63.9 3.19,-63.9zm-226.84 150.16c16.63,-8.8 80,-58.97 99.01,-73.52 5.57,-4.26 10.52,-7.81 16.37,-12.38 47.38,-36.93 63.97,40.26 108.26,69.92 15.57,-4.16 22.92,-19.85 34.67,-29.23l84.18 -75.57c32.84,-27.94 43.73,3.14 76.5,46.83l35.5 47.57c5.09,7.04 5.91,11.12 15.16,13.59 0,-25.38 5.08,-202.3 -5.22,-221.62 -3.36,-6.31 -13.29,-14.8 -20.34,-14.8l-415.34 0c-39.35,0 -28.75,57.48 -28.75,108.63 0,46.86 0,93.72 0,140.58zm156.55 60.7c0,-22.77 17.69,-25.01 28.75,-41.53 -14.04,-20.97 -33.57,-36.07 -47.92,-57.51l-122.87 91.19c-20.86,15.04 -14.51,15.23 -14.51,74.95 0,17.95 14,31.95 31.95,31.95l399.36 0c46,0 38.34,-41.14 38.34,-79.87 0,-8.69 -96.82,-127.85 -108.63,-150.16 -27.47,18.4 -159.29,153.88 -179.38,155.62 -14.15,1.23 -25.1,-8.97 -25.1,-24.63zm-555.91 239.62l0 354.63c0,15.45 9.07,28.75 25.56,28.75l472.85 0c0,18.61 -2.57,29.96 7.02,40.9 18.9,21.58 47.29,7.72 47.29,-28.12 0,-16.09 3.4,-63.9 -22.36,-63.9l-476.04 0 0 -332.27c0,-39.89 -54.31,-35.89 -54.31,0zm1214.06 -3.2l0 335.47 -472.85 0c-33.08,0 -25.56,37.19 -25.56,73.48 0,35.29 54.31,42.52 54.31,-6.39l0 -15.97 476.04 0c7.69,0 19.17,-11.48 19.17,-19.17l0 -367.41c0,-34.29 -51.12,-34.29 -51.12,0zm-811.51 482.43c0,10.09 6.83,9.55 15.73,13.03 7.21,2.82 12.71,5.32 22.61,6.14 4.75,57.11 40.52,31.34 6.39,95.85l43.96 45.5c30.42,-8.84 28.6,-21.04 46.84,-12.06 13.93,6.85 32.38,17.29 49.78,17.68 3.4,14.59 9.83,25.66 12.78,38.34l67.09 0c0.49,-5.85 8.22,-29.66 11.17,-33.56 2.25,-2.98 56.58,-26.8 63.37,-25.02 10.21,2.68 18.13,10.13 34.09,13.85l42.25 -44.02c-9.08,-32.78 -20.53,-28 -11.73,-46.49 6.73,-14.15 10.39,-16.51 15.22,-33.09 2.51,-8.62 -3.61,-18.74 43.72,-29.76l0 -31.95 -99.04 0c0,74.36 -60.07,134.19 -134.19,134.19 -67.05,0 -130.99,-52.64 -130.99,-134.19l-99.04 0 0 25.56zm-239.62 -271.57l0 73.48 63.9 0c0,-46.89 -7.29,-83.07 9.58,-83.07l319.49 0 0 -63.9 -293.93 0c-52.7,0 -99.04,20.93 -99.04,73.48zm546.33 -63.9l0 54.31 322.68 0c16.88,0 9.58,36.18 9.58,83.07l60.7 0c0,-72.2 16.73,-146.97 -92.65,-146.97l-290.74 0c-7.36,0 -9.58,2.22 -9.58,9.58zm-102.24 -150.16l0 412.14c0,36.73 54.31,38.95 54.31,-3.2l0 -396.17c0,-51.37 -54.31,-38.12 -54.31,-12.78zm19.17 543.13c41.93,0 66.6,-12.3 84.3,-49.89 5.77,-12.25 5.29,-20.06 8.35,-33.18l-169.33 0c0,42.29 35.48,83.07 76.68,83.07zm635.79 -993.62l79.87 0c12.21,0 1.16,0.98 9.58,-3.19l-79.16 -67.81c-10.68,-9.31 -20.61,-19.29 -29.47,-21.65 0,59.78 -9.42,92.65 19.17,92.65z"/>
 </g>
</svg>
