<?xml version="1.0" encoding="UTF-8"?>
<!DOCTYPE svg PUBLIC "-//W3C//DTD SVG 1.1//EN" "http://www.w3.org/Graphics/SVG/1.1/DTD/svg11.dtd">
<!-- Creator: CorelDRAW -->
<svg xmlns="http://www.w3.org/2000/svg" xml:space="preserve" width="8.12662in" height="9.724in" version="1.1" style="shape-rendering:geometricPrecision; text-rendering:geometricPrecision; image-rendering:optimizeQuality; fill-rule:evenodd; clip-rule:evenodd"
viewBox="0 0 2283.82 2732.74"
 xmlns:xlink="http://www.w3.org/1999/xlink"
 xmlns:xodm="http://www.corel.com/coreldraw/odm/2003">
 <defs>
  <style type="text/css">
   <![CDATA[
    .fil0 {fill:#1AA5FF}
   ]]>
  </style>
 </defs>
 <g id="Layer_x0020_1">
  <metadata id="CorelCorpID_0Corel-Layer"/>
  <path class="fil0" d="M1513.6 2132.14l-744.75 0c-99.75,0 -174.18,-64.08 -174.18,-144.14l0 -1141.14c0,-53.41 25.99,-98.49 68.41,-123.78 56.68,-33.8 88.17,-26.37 171.83,-26.37 6.97,-83.75 90.41,-96.1 162.16,-96.1 7.01,-84.25 200.09,-183.82 288.29,0 49.93,0 74.65,-0.04 107.13,18.99 40.33,23.63 36.35,38.16 55.03,77.1 78.14,0 128.74,-3.08 174.4,29.8 41.21,29.68 65.84,73.81 65.84,144.37l0 1075.08c0,116.83 -61.79,186.19 -174.18,186.19zm-1321.32 -1435.44l-24.02 402.4c0,180.16 25.21,393.2 66.76,533.84 53.78,182.02 91.84,264.36 189.08,411.52 25.28,38.26 103.32,135.4 137.91,162.4l118.57 103.65c15.37,12.44 29.58,21.05 45.33,32.75l91.25 58.91c68.55,39.49 228.93,117.63 306.99,144.15 25.77,8.76 67.48,-14.65 106.4,-30.59 34.12,-13.98 70.08,-30.84 102.9,-47.26 32.07,-16.04 67.78,-31.6 99.57,-50.58 32.96,-19.68 63.4,-35.62 93.52,-56.63 191.06,-133.3 314.14,-258.16 423.6,-477.3 34.72,-69.5 57.98,-137.81 83.83,-216.47 72.31,-220.08 90.29,-575.41 63.14,-827.54 -3.45,-32.05 -6.03,-72.58 -6.74,-101.37 -1.39,-56.48 -11.7,-44.87 -59.77,-54.35 -124.14,-24.49 -238.55,-60.98 -347.98,-102.47 -115.25,-43.7 -262.39,-123.16 -362.13,-196.43 -20.46,-15.03 -45.1,-33.26 -63.61,-50.5l-121.63 -106.6c-19.06,28.46 -148.41,136.05 -185.24,163.11 -70.24,51.59 -142.87,91.03 -223.16,131.19 -191.42,95.74 -321.29,124.49 -534.54,174.18zm1195.2 1177.18c-55.37,12.9 -171.5,6 -234.23,6 -58.81,0 -48.07,-66.07 -12.01,-66.07l228.23 0c21.71,0 36.45,26.01 18.02,60.06zm-276.28 -162.16c9.86,-18.63 13.11,-30.03 42.04,-30.03l342.34 0c58.58,0 45.9,66.07 12.01,66.07l-366.37 0c-23.88,0 -23.63,-21.72 -30.03,-36.04zm-222.22 156.16c-32.59,0 -120.12,-87.53 -120.12,-120.12 0,-14.01 16.03,-30.03 30.03,-30.03 37.97,0 63.53,48.28 90.09,66.07 54.32,-36.38 84.91,-100.79 144.15,-132.13 73.25,38.76 9.24,77.85 -28.53,115.61 -19.97,19.97 -89.75,100.6 -115.62,100.6zm498.5 -354.36c-55.37,12.9 -171.5,6.01 -234.23,6.01 -58.59,0 -45.9,-66.07 -12.01,-66.07l228.23 0c21.71,0 36.45,26.01 18.02,60.06zm120.12 -126.13l-366.37 0c-37.3,0 -45.9,-66.07 12.01,-66.07l342.34 0c58.58,0 45.9,66.07 12.01,66.07zm-612.61 120.12c-44.83,0 -126.13,-90.81 -126.13,-120.12 0,-14.01 16.03,-30.03 30.03,-30.03 37.97,0 63.53,48.28 90.09,66.07 46.94,-31.44 102.42,-126.13 150.15,-126.13 27.58,0 37.15,34.33 16.84,58.55 -14.39,17.15 -145.08,151.66 -160.98,151.66zm492.49 -354.36c-55.81,13 -182.16,6.01 -246.25,6.01 -37.42,0 -37.42,-66.07 0,-66.07l228.23 0c21.71,0 36.45,26.01 18.02,60.06zm102.1 -120.12l-330.33 0c-62.93,0 -63.41,-72.07 -6,-72.07 77.6,0 312.92,-7.85 372.37,6.01 15.96,33.25 10.22,66.07 -36.03,66.07zm-594.6 114.11c-44.83,0 -126.13,-90.81 -126.13,-120.12 0,-17.04 20.73,-30.03 36.04,-30.03 22.7,0 64.23,52.77 84.08,66.07 46.94,-31.44 102.42,-126.13 150.15,-126.13 27.58,0 37.15,34.33 16.84,58.55 -13.98,16.67 -35.04,34.72 -51.37,51.05 -17.93,17.93 -88.61,100.6 -109.61,100.6zm-234.24 -288.29l0 1111.11c0,46.43 34.84,90.09 78.08,90.09l792.79 0c49.99,0 84.08,-34.09 84.08,-84.08l0 -1135.14c0,-26.16 -19.14,-50.11 -35.81,-60.28 -32.07,-19.56 -79.74,-17.8 -120.34,-17.8 -22.37,0 -15.23,12.69 -22.69,31.36 -14.82,37.08 -53.64,64.74 -97.43,64.74l-402.4 0c-34.14,0 -55.58,-15.97 -73.9,-34.21 -54.98,-54.74 8.62,-61.88 -82.26,-61.88 -70.69,0 -120.12,26.69 -120.12,96.1zm-558.56 288.29c0,-88.36 -2.36,-223.08 9.47,-302.84l12.7 -143.46c3.28,-26.68 -4.61,-53.39 29.69,-66.41 27.02,-10.25 239.08,-46.5 404.68,-111.84 195.22,-77.03 368.43,-184.58 518.07,-328.78 42.14,-40.61 54.51,-66.48 102.07,-21.24 153.43,145.96 294,242.12 497.06,331.77 146.13,64.51 264.95,89.4 422.77,123.77 61.01,13.29 59.45,27.58 63.57,158.65 2.07,66.05 12.16,119.45 12,210.23l0.52 96.21c-1.84,34.75 -0.62,72.92 -0.49,108.01 0.55,149.27 -33.14,341.82 -74.17,484.39 -60.62,210.67 -170.7,406.09 -323.75,559.14 -75.59,75.59 -150.88,136.73 -243.57,194.87 -82.41,51.69 -276.27,147.77 -374.25,178.86 -30.38,9.64 -50.57,-4.7 -79.1,-16.16 -58.18,-23.37 -175.87,-71.15 -227.66,-102.67 -25.02,-15.22 -47,-25.86 -72.81,-41.3 -78.64,-47.04 -184.19,-121.21 -251.98,-186.46 -17.19,-16.54 -39.3,-37.21 -53.33,-54.78 -121.94,-152.85 -180.03,-219.56 -253.92,-412.75 -76.95,-201.21 -117.56,-432.57 -117.56,-657.21zm-72.07 -588.59c0,80.92 -14.2,153.27 -17.91,228.34 -16.99,343.68 -33.91,622.56 80.23,964.59 69.83,209.24 131.49,320.34 267.11,489.65 41.35,51.62 80.25,84.27 125.57,126.68 93.89,87.86 284.43,215.91 406.39,266.28 30.77,12.71 227.45,98.63 243.71,98.63 35.29,0 255.91,-100.93 298.3,-122.12 97.21,-48.6 177.74,-98.19 261.2,-159.22 110.63,-80.91 233.06,-207.24 309.01,-321.62 162.41,-244.61 235.19,-484.09 265.73,-785.32 6.56,-64.65 5.2,-137.33 12.03,-198.18 7.47,-66.52 -5.47,-134 -5.09,-203.37 0.59,-109.65 -30.07,-299.84 -30.07,-390.35 -41.71,-0.93 -300.32,-64.51 -338.94,-75.48 -151.13,-42.9 -331.55,-119.82 -456.4,-210.27l-62.15 -45.96c-11.13,-9.11 -19.41,-14.22 -29.95,-24.1l-217.67 -196.74c-15.53,4.15 -93.07,77.68 -109.62,94.58 -8.82,9 -14.63,15.7 -24.28,23.77 -13.24,11.06 -16.56,11.35 -29.88,24.17 -10.62,10.23 -16.16,17.04 -26.78,27.27 -13.27,12.78 -16.79,13.15 -29.86,24.2 -81.64,69.06 -155.78,119.39 -251.95,168.47 -46.58,23.77 -92.06,42.27 -141.92,62.29 -98.64,39.6 -219.26,73.39 -326.13,94.29 -32.28,6.31 -51.95,10.99 -84.04,18.06 -24.68,5.43 -69.41,13.2 -86.64,21.47zm870.87 150.15c0,33.27 -6.51,84.08 48.05,84.08l378.38 0c30.19,0 54.05,-26.11 54.05,-54.06 0,-106.04 -73.95,-47.15 -134.34,-69.86 -44.57,-16.75 -13.19,-104.31 -105.9,-104.31 -88.9,0 -78.61,81.42 -95.24,96.95 -27.13,25.36 -145,-13.8 -145,47.19z"/>
 </g>
</svg>
