<?xml version="1.0" encoding="UTF-8"?>
<!DOCTYPE svg PUBLIC "-//W3C//DTD SVG 1.1//EN" "http://www.w3.org/Graphics/SVG/1.1/DTD/svg11.dtd">
<!-- Creator: CorelDRAW -->
<svg xmlns="http://www.w3.org/2000/svg" xml:space="preserve" width="9.72382in" height="9.72382in" version="1.1" style="shape-rendering:geometricPrecision; text-rendering:geometricPrecision; image-rendering:optimizeQuality; fill-rule:evenodd; clip-rule:evenodd"
viewBox="0 0 3863.46 3863.46"
 xmlns:xlink="http://www.w3.org/1999/xlink"
 xmlns:xodm="http://www.corel.com/coreldraw/odm/2003">
 <defs>
  <style type="text/css">
   <![CDATA[
    .fil0 {fill:#1AA5FF}
   ]]>
  </style>
 </defs>
 <g id="Layer_x0020_1">
  <metadata id="CorelCorpID_0Corel-Layer"/>
  <path class="fil0" d="M550.85 2927.78l0 -754.58c0,-42.21 14.71,-98.1 52.82,-98.1l1758.18 0c32.12,0 52.82,46.69 52.82,83l0 784.76c0,52.13 -24.18,90.55 -75.46,90.55l-1712.9 0c-58.98,0 -75.46,-46.21 -75.46,-105.64zm2773.64 935.68l-28.06 0c-37.49,-3.62 -73.98,-22.06 -98.88,-58.5 -84.61,-123.85 57.39,-356.52 -118.86,-356.52l-2663.67 0 0 -1516.71 875.31 0c67.44,0 90.55,-38.19 90.55,-105.64l0 -754.58c0,-67.45 -23.11,-105.64 -90.55,-105.64l-875.31 0 0 -837.59c0,-68.96 59.31,-128.28 128.28,-128.28l2776.86 0c154.55,0 128.28,180.83 128.28,279.19l-1863.82 0c-54.41,0 -67.91,51.21 -67.91,105.64l0 1305.43c0,42.21 14.71,98.1 52.82,98.1l1878.91 0 0 558.39 -807.4 0c-37.18,0 -83,17.63 -83,52.82l0 860.22c0,38.11 55.88,52.82 98.1,52.82l792.31 0 0 422.57c0,73.97 -59.51,122.09 -123.95,128.28zm-2773.64 -3448.44l830.04 0 0 135.83 -830.04 0 0 -135.83zm558.39 -271.65l128.28 0 0 128.28 -128.28 0 0 -128.28zm-279.19 0l135.83 0 0 128.28 -135.83 0 0 -128.28zm-279.19 0l135.82 0 0 128.28 -135.82 0 0 -128.28zm2558.03 415.02c86.69,0 137.79,-0.59 209.62,77.12 31.36,33.93 65.42,107.01 59.17,168.92 -18.6,184.25 -189.99,268.99 -331.66,209.22 -34.96,-14.75 -43.07,-21.17 -67.43,-45.76 -49.74,-50.2 -65.13,-67.85 -77.2,-157.23 -16.36,-121.13 97.19,-252.26 207.5,-252.26zm-1456.34 769.67c29.8,-7.96 496.93,-294.08 558.75,-331.66 85.61,-52.03 103.09,-19.97 242.6,73.61l466.35 303.32 256.5 -135.88c44.07,-21.86 84.61,-42.4 130.88,-65.31 191.01,-94.58 98.95,-96.87 452.53,100.77 27.62,15.44 75.57,48.68 103.32,55.15l0 -913.04 -2210.92 0 0 913.04zm-1652.53 2407.11c0,55.11 39.59,98.39 78.72,117.48 10.51,5.13 39.65,8.56 79.75,10.8l513.11 0 37.49 0 37.49 0 37.49 0 37.49 0 37.49 0 37.49 0 37.49 0 37.49 0 37.49 0 37.49 0 37.49 0 37.49 0 37.49 0 37.49 0 37.49 0 37.49 0 37.49 0 37.49 0 37.49 0 37.49 0 37.49 0 37.49 0 37.49 0 37.49 0 37.49 0 37.49 0 37.49 0 37.49 0 37.49 0 37.49 0 37.49 0 37.49 0 37.49 0 37.49 0 37.49 0 37.49 0 37.49 0 37.49 0 37.49 0 37.49 0 37.49 0 37.49 0 37.49 0 37.49 0 37.49 0 37.49 0 37.49 0 37.49 0 37.49 0 37.49 0 37.49 0 37.49 0 37.49 0 37.49 0 37.49 0 37.49 0 37.49 0 37.49 0 37.49 0 37.49 0 37.49 0 37.49 0 37.49 0 37.49 0c-25.36,-108.84 -32.82,-25.56 -29.74,-219.27 0.51,-32.04 7.47,-59.92 -23.08,-59.92l-3018.33 0 0 150.92zm1795.9 -1109.23l339.56 0 0 128.28 -339.56 0 0 -128.28zm-965.86 0l822.49 0 0 128.28 -822.49 0 0 -128.28zm1169.6 -279.19l135.83 0 0 135.83 -135.83 0 0 -135.83zm-754.58 0l618.76 0 0 135.83 -618.76 0 0 -135.83zm-415.02 0l271.65 0 0 135.83 -271.65 0 0 -135.83zm-143.37 550.85l1592.17 0 0 -694.22 -1592.17 0 0 694.22zm965.87 -1395.98l0 158.46 2210.92 0 0 -158.46c0,-30.7 -69.31,-55.06 -90.94,-67.52 -35.72,-20.56 -71.09,-40.47 -105.64,-60.37 -35.72,-20.57 -71.09,-40.47 -105.64,-60.37 -153.38,-88.31 -62.06,-84.89 -374.4,70.02 -274.64,136.21 -238.84,167.58 -352.59,91.03l-546.74 -352.02c-22.9,-8.73 -17.23,-6.69 -40.41,7.19l-282.8 170.68c-24.87,14.83 -311.76,172.33 -311.76,201.35zm-801.52 -141.72l90.41 -94.01c21.97,15.1 160.27,140.54 160.27,182.91 0,40.18 -124.88,158.61 -158.46,181.1l-92.36 -88.74 86.48 -90.71 -86.34 -90.55zm-550.85 87.25l86.34 90.55 -90.41 94.01c-26.59,-18.41 -152.73,-139.33 -152.73,-167.82l0 -30.18c0,-28.49 126.13,-149.41 150.92,-166.01l92.36 88.74 -86.48 90.71zm318.59 228.03c-40.89,-9.53 -87.91,-34.37 -128.28,-37.73l134.66 -415.41c20.95,9.88 96.78,36.03 121.89,38.12 -1.46,65.33 -122.67,347.55 -128.28,415.02zm-618.76 120.73l1245.06 0 0 -694.21 -1245.06 0 0 694.21zm3108.88 1101.69l611.21 0 0 135.82 -611.21 0 0 -135.82zm-279.19 0l135.83 0 0 135.82 -135.83 0 0 -135.82zm279.19 -271.65l611.21 0 0 128.28 -611.21 0 0 -128.28zm-279.19 0l135.83 0 0 128.28 -135.83 0 0 -128.28zm-143.37 550.85l1177.15 0 0 -694.21 -1177.15 0 0 694.21zm347.11 -2376.93c0,128.2 211.28,128.2 211.28,0 0,-149.66 -211.28,-149.66 -211.28,0z"/>
 </g>
</svg>
