<?xml version="1.0" encoding="UTF-8"?>
<!DOCTYPE svg PUBLIC "-//W3C//DTD SVG 1.1//EN" "http://www.w3.org/Graphics/SVG/1.1/DTD/svg11.dtd">
<!-- Creator: CorelDRAW -->
<svg xmlns="http://www.w3.org/2000/svg" xml:space="preserve" width="5.68938in" height="5.68938in" version="1.1" style="shape-rendering:geometricPrecision; text-rendering:geometricPrecision; image-rendering:optimizeQuality; fill-rule:evenodd; clip-rule:evenodd"
viewBox="0 0 2284.63 2284.63"
 xmlns:xlink="http://www.w3.org/1999/xlink"
 xmlns:xodm="http://www.corel.com/coreldraw/odm/2003">
 <defs>
  <style type="text/css">
   <![CDATA[
    .fil0 {fill:#1AA5FF}
   ]]>
  </style>
 </defs>
 <g id="Layer_x0020_1">
  <metadata id="CorelCorpID_0Corel-Layer"/>
  <path class="fil0" d="M-0 58.01l0 285.58c0,27.36 30.65,58.01 58.01,58.01l290.04 0c27.36,0 58.01,-30.65 58.01,-58.01l0 -75.86 267.73 0 -98.18 75.85c-85.31,65.71 -178.67,200.07 -223.05,299.02 -40.12,89.46 -60.41,172.84 -73.28,274.77 -9.26,73.3 -0.68,2.7 -86.34,87.68 -120.56,119.6 -27.73,338.06 132.8,338.06l26.77 0c93.35,0 187.41,-94.06 187.41,-187.41 0,-39.95 0.94,-49.45 -13.91,-88.72 -18.09,-47.88 -72.29,-102.01 -115.5,-112.07 5.08,-10.58 11.77,-190.88 113.31,-341.83 103.58,-153.98 240.35,-272.06 440,-318.57 47.99,71.66 92.38,107.09 187.41,107.09 81.25,0 130.47,-48.71 169.56,-107.09 199.64,46.51 336.41,164.59 440,318.57 101.54,150.95 108.23,331.25 113.31,341.83 -61.87,14.42 -129.4,100.66 -129.4,174.03l0 26.77c0,93.35 94.06,187.41 187.41,187.41l26.77 0c93.35,0 187.41,-94.06 187.41,-187.41 0,-86.51 -29.12,-142.69 -98.92,-186.66 -35.91,-22.61 -35.1,2.84 -41.48,-47.77 -19.55,-155.14 -53.47,-257.34 -133.67,-388.4 -36.15,-59.07 -109.5,-146.24 -161.32,-186.73l-100.07 -78.41 267.73 0 0 75.86c0,27.36 30.65,58.01 58.01,58.01l290.04 0c27.36,0 58.01,-30.65 58.01,-58.01l0 -285.58c0,-27.36 -30.65,-58.01 -58.01,-58.01l-290.04 0c-27.36,0 -58.01,30.65 -58.01,58.01l0 75.86 -548.85 0c-14.92,-64.02 -95.13,-133.86 -174.03,-133.86l-26.77 0c-78.9,0 -159.11,69.84 -174.03,133.86l-548.85 0 0 -75.86c0,-27.36 -30.65,-58.01 -58.01,-58.01l-290.04 0c-27.36,0 -58.01,30.65 -58.01,58.01zm539.92 1352.03c0,38.66 45.01,73.84 75.28,112.13 72.63,91.86 128,195.06 157.72,310.81 4.45,17.34 15.3,57.85 16.88,76.82 67.98,-15.84 64.12,-31.23 182.95,-31.23 81.34,0 372.01,-5.35 438.59,7.63 46.66,9.1 61.73,18.54 83.49,23.61 6.14,-73.78 62.88,-214.92 98.36,-276.46 33.64,-58.35 74.7,-111.98 119.25,-161.87 59.89,-67.07 30.31,-86.7 -26.62,-172.09l-203.48 -305.21c-45.94,-68.92 -89.7,-134.56 -135.64,-203.48 -17.66,-26.5 -125.32,-192.81 -137.44,-201.69l0 633.63c20.62,10.91 38.27,17.48 56.74,32.5 204.06,165.92 -39.76,475.34 -252.59,306.13 -75.2,-59.78 -91.22,-171.42 -39.37,-257.03 8.75,-14.44 8.64,-13.09 19.58,-25.04l6.34 -7.04c0.64,-0.66 1.55,-1.62 2.19,-2.27l14.07 -12.71c20.02,-16.77 36.58,-22.59 59.17,-34.54l0 -633.63c-15.24,11.17 -452.11,674.39 -510.48,761.24 -12.19,18.14 -24.98,31.78 -24.98,59.8zm142.79 807.65c0,38.1 28.84,66.93 66.93,66.93l785.34 0c35.67,0 66.93,-28.44 66.93,-62.47 0,-62.91 -79.42,-153.67 -148.63,-186.03 -19.61,-9.17 -66.06,-23.69 -92.33,-23.69l-437.29 0c-77.52,0 -166.14,58.55 -207.9,126.76 -10.01,16.35 -33.06,57.19 -33.06,78.5zm392.67 -816.57c0,112.09 133.86,85.46 133.86,17.85 0,-112.09 -133.86,-85.46 -133.86,-17.85z"/>
 </g>
</svg>
